<svg xmlns="http://www.w3.org/2000/svg" viewBox="0 0 512 512">
  <rect width="512" height="512" rx="96" fill="#24292F"/>
  <path
    fill="#fff"
    d="M256 128c-88 0-160 72-160 160 0 70 45 130 108 152 8 1 11-3 11-7 0-3 0-12 0-23-44 10-53-21-53-21-7-17-18-22-18-22-15-10 1-9 1-9 17 1 26 17 26 17 15 26 40 18 50 14 1-11 6-18 10-22-35-4-71-18-71-79 0-17 6-32 16-43-2-4-7-19 2-40 0 0 13-4 44 16 12-3 25-5 38-5 13 0 26 2 38 5 31-20 44-16 44-16 9 21 4 36 2 40 10 11 16 26 16 43 0 61-36 75-71 79 6 5 11 15 11 30 0 22 0 39 0 45 0 4 3 9 11 7 63-21 108-82 108-152 0-88-72-160-160-160z"
  />
</svg>
